<?xml version="1.0" standalone="no"?> <!DOCTYPE svg PUBLIC "-//W3C//DTD SVG 1.0//EN" "http://www.w3.org/TR/2001/REC-SVG-20010904/DTD/svg10.dtd" > <svg xmlns="http://www.w3.org/2000/svg" width="100%" height="100%">
<defs >
<font id="gillsanslight" horiz-adv-x="807" ><font-face
    font-family="Gill Sans Light"
    units-per-em="2048"
    panose-1="2 11 4 2 2 2 4 2 2 4"
    ascent="1397"
    descent="-491"
    alphabetic="0" />
<missing-glyph horiz-adv-x="669" d="M0 1274H569V0H0V1274ZM100 1174V100H469V1174H100Z" />
<glyph unicode=" " glyph-name="null" horiz-adv-x="569" />
<glyph unicode="!" glyph-name="null" horiz-adv-x="362" d="M150 405L116 1414H249L216 405H150ZM115 196H249V0H115V196Z" />
<glyph unicode="&quot;" glyph-name="null" horiz-adv-x="569" d="M97 927L76 1162V1397H211V1162L191 927H97ZM380 927L359 1162V1397H494V1162L474 927H380Z" />
<glyph unicode="#" glyph-name="null" horiz-adv-x="1352" d="M1117 1397L825 -17H730L1022 1397H1117ZM621 1397L329 -17H234L526 1397H621ZM158 1001H1194V908H158V1001ZM158 530H1194V437H158V530Z" />
<glyph unicode="$" glyph-name="null" horiz-adv-x="1067" d="M927 1111Q819 1190 719 1225T504 1261Q359 1261 274 1197T189 1023Q189 918 273 851Q356 784 545 739Q777 683 884 587Q991 492 991 340Q991 176 867 80T531 -17Q398 -17 289 22T72 148V257Q186 165
297 123T531 80Q693 80 788 150T883 341Q883 444 794 515Q705 585 519 629Q313 678 197 781Q81 883 81 1015Q81 1173 195 1265T504 1358Q637 1358 736 1326T927 1220V1111ZM477 1492H579V-151H477V1492Z" />
<glyph unicode="%" glyph-name="null" horiz-adv-x="1430" d="M369 761Q224 761 132 851T39 1085Q39 1228 131 1319T369 1411V1411Q514 1411 606 1320T699 1085Q699 942 607 852T369 761V761ZM369 1330Q270 1330 200 1259T130 1087Q130 987 200 917T369 846V846Q468
846 538 916T608 1087Q608 1188 538 1259T369 1330V1330ZM105 -27L1224 1411H1327L208 -27H105ZM1061 -27Q916 -27 824 63T731 297Q731 440 823 531T1061 623V623Q1206 623 1298 532T1391 297Q1391 154 1299 64T1061 -27V-27ZM1061 542Q962 542 892 471T822 299Q822
199 892 129T1061 58V58Q1160 58 1230 128T1300 299Q1300 400 1230 471T1061 542V542Z" />
<glyph unicode="&amp;" glyph-name="null" horiz-adv-x="1260" d="M220 1072Q220 1195 315 1283T543 1372Q675 1372 770 1291T865 1096Q865 973 781 874Q706 787 566 713L889 375L930 450Q999 577 1040 704V704H1096H1152V704Q1110 575 1028 425Q992 358 956 305L1247
0V0H1178H1108V0L896 222L873 195Q778 91 662 37T415 -17Q248 -17 151 75T53 326Q53 462 163 581Q257 683 403 741Q311 836 270 907Q220 992 220 1072ZM446 88Q528 88 618 133T804 269L828 293L471 667Q347 619 267 540Q170 444 170 331Q170 218 244 153Q318 88
446 88ZM327 1076Q327 1016 373 941Q414 874 496 785Q592 822 665 889Q758 976 758 1070Q758 1153 695 1211T543 1270Q453 1270 390 1213Q327 1157 327 1076Z" />
<glyph unicode="&apos;" glyph-name="null" horiz-adv-x="455" d="M181 927L160 1162V1397H295V1162L275 927H181Z" />
<glyph unicode="(" glyph-name="null" horiz-adv-x="682" d="M164 470Q164 736 278 995T578 1414H668Q484 1257 373 998T261 470Q261 201 373 -59T668 -475H578Q391 -316 277 -56Q164 204 164 470Z" />
<glyph unicode=")" glyph-name="null" horiz-adv-x="682" d="M518 469Q518 203 404 -56T104 -475H14Q198 -318 309 -59T421 469Q421 738 309 998T14 1414H104Q291 1255 405 995Q518 735 518 469Z" />
<glyph unicode="*" glyph-name="null" horiz-adv-x="961" d="M530 1397L489 1022Q489 1019 495 1017T503 1016L738 1310L808 1240L515 1006Q513 1004 515 998T521 992L894 1032V933L519 974Q516 974 514 968T513 960L807 725L737 655L503 948Q501 950 495 948T489
942L529 569H430L471 944Q471 947 465 949T457 950L222 656L152 726L445 960Q447 962 445 968T439 974L66 934V1033L441 992Q444 992 446 998T447 1006L153 1241L223 1311L457 1018Q459 1016 465 1018T471 1024L431 1397H530Z" />
<glyph unicode="+" glyph-name="null" horiz-adv-x="1352" d="M631 675H139V763H631V1255H719V763H1211V675H719V183H631V675Z" />
<glyph unicode="," glyph-name="null" horiz-adv-x="362" d="M115 100V199H176H248V23Q248 -50 211 -123T115 -240V-240V-174V-174Q144 -139 153 -94Q159 -62 161 0V0H155H115V100Z" />
<glyph unicode="-" glyph-name="null" horiz-adv-x="641" d="M78 508H562V411H78V508Z" />
<glyph unicode="." glyph-name="null" horiz-adv-x="362" d="M115 196H249V0H115V196Z" />
<glyph unicode="/" glyph-name="null" horiz-adv-x="575" d="M551 1425L102 -21H6L455 1425H551Z" />
<glyph unicode="0" glyph-name="null" horiz-adv-x="1024" d="M512 -21Q316 -21 191 180T66 698Q66 1015 191 1216T512 1418Q709 1418 833 1217T958 698Q958 382 834 181T512 -21V-21ZM512 76Q653 76 752 258T851 698Q851 957 752 1139T512 1321Q372 1321 273
1139T173 698Q173 440 272 258T512 76V76Z" />
<glyph unicode="1" glyph-name="null" horiz-adv-x="1024" d="M459 0V1397V1397H510H562V1397V0V0H511H459V0Z" />
<glyph unicode="2" glyph-name="null" horiz-adv-x="1024" d="M830 1020Q830 807 644 512Q513 305 314 97V97H963V0H76V0Q374 271 549 546Q723 821 723 1019Q723 1144 632 1232T412 1321Q332 1321 255 1282T102 1162V1285Q185 1354 264 1386T429 1418Q605 1418
718 1306Q830 1195 830 1020Z" />
<glyph unicode="3" glyph-name="null" horiz-adv-x="1024" d="M750 1051Q750 1163 664 1242T455 1321Q372 1321 303 1300T161 1229V1332Q233 1378 298 1398T439 1418Q623 1418 740 1321T857 1070Q857 917 759 820Q699 761 620 737V737Q710 715 776 653Q879 556
879 403Q879 216 761 98T457 -21Q367 -21 295 -5T139 51V156Q226 115 297 98T455 81Q587 81 679 169T772 383Q772 509 680 597T455 686H412V782H455Q577 782 664 861Q750 939 750 1051Z" />
<glyph unicode="4" glyph-name="null" horiz-adv-x="1024" d="M675 531H29V551V572L740 1397H759H778V628V628H965V531H778V531V0H675V531V531ZM675 628V628V1205V1205V1205L180 628V628H675Z" />
<glyph unicode="5" glyph-name="null" horiz-adv-x="1024" d="M872 448Q872 242 744 111T414 -21Q321 -21 244 2T84 78V188Q170 131 250 106T425 81Q574 81 670 179T767 428Q767 583 665 679T398 776Q345 776 290 768T202 745V745V1397V1397H794V1300H294V1300V856V856Q347
867 399 865Q617 865 745 752Q872 640 872 448Z" />
<glyph unicode="6" glyph-name="null" horiz-adv-x="1024" d="M701 1418L766 1347Q499 1153 365 931Q286 801 254 658V658L272 671Q397 761 536 761Q717 761 832 652T948 369Q948 197 833 88T536 -21Q343 -21 234 114T125 489Q125 729 278 976Q430 1222 701 1418ZM554
76Q673 76 757 161T841 369Q841 491 752 577T536 664Q418 664 314 596Q267 565 234 528V528L232 461Q232 280 317 178T554 76Z" />
<glyph unicode="7" glyph-name="null" horiz-adv-x="1024" d="M241 0L824 1300V1300H59V1397H966H973H980L335 -43L241 0Z" />
<glyph unicode="8" glyph-name="null" horiz-adv-x="1024" d="M513 -21Q338 -21 227 88T115 369Q115 542 227 652Q276 700 338 728V728Q284 753 241 795Q135 896 135 1055Q135 1204 246 1311T513 1418Q668 1418 779 1311T891 1055Q891 896 785 794Q744 755 692
730V730Q756 702 804 655Q911 549 911 369Q911 197 800 88T513 -21V-21ZM513 775Q625 775 704 854T784 1047Q784 1161 705 1241T513 1321Q401 1321 322 1241T242 1047Q242 934 322 854Q401 775 513 775ZM514 679Q393 679 308 591T222 377Q222 252 307 164T514 76Q636
76 721 164T807 377Q807 511 725 595Q644 679 514 679Z" />
<glyph unicode="9" glyph-name="null" horiz-adv-x="1024" d="M313 -22L248 49Q515 243 649 465Q728 595 760 738V738L742 725Q617 635 478 635Q297 635 182 744T66 1027Q66 1199 181 1308T478 1417Q671 1417 780 1282T889 907Q889 667 736 420Q584 174 313 -22ZM460
1320Q341 1320 257 1235T173 1027Q173 905 262 819T478 732Q596 732 700 800Q747 831 780 868V868L782 935Q782 1116 697 1218T460 1320Z" />
<glyph unicode=":" glyph-name="null" horiz-adv-x="362" d="M115 196H249V0H115V196ZM115 920H249V724H115V920Z" />
<glyph unicode=";" glyph-name="null" horiz-adv-x="362" d="M115 100V199H176H248V23Q248 -50 211 -123T115 -240V-240V-174V-174Q144 -139 153 -94Q159 -62 161 0V0H155H115V100ZM116 920H250V724H116V920Z" />
<glyph unicode="&lt;" glyph-name="null" horiz-adv-x="1352" d="M139 675V719V763L1212 1215V1119L259 720V720L1212 319V223L139 675Z" />
<glyph unicode="=" glyph-name="null" horiz-adv-x="1352" d="M139 517H1211V428H139V517ZM139 1011H1211V922H139V1011Z" />
<glyph unicode="&gt;" glyph-name="null" horiz-adv-x="1352" d="M1212 675L139 223V319L1092 720V720L139 1119V1215L1212 763V719V675Z" />
<glyph unicode="?" glyph-name="null" horiz-adv-x="575" d="M231 1317Q185 1317 140 1295T51 1229L93 1376Q133 1397 164 1405T231 1414Q339 1414 416 1331T494 1132Q494 1045 466 968T373 798Q258 634 237 530T282 349L236 321Q142 431 152 539T289 852Q342
939 364 1003T387 1132Q387 1209 341 1263Q296 1317 231 1317ZM192 196H326V0H192V196Z" />
<glyph unicode="@" glyph-name="null" horiz-adv-x="1638" d="M1339 160Q1434 160 1490 288T1546 636Q1546 960 1358 1150T848 1341Q501 1341 297 1127T92 549Q92 185 297 -29T854 -243Q959 -243 1054 -233T1181 -208V-290Q1149 -305 1063 -315T885 -325Q476 -325
236 -89T-4 549Q-4 951 227 1187T852 1423Q1216 1423 1429 1211T1642 636Q1642 375 1553 222T1311 69Q1210 69 1150 195Q1127 247 1111 309V309Q1083 250 1040 201Q924 69 749 69Q578 69 460 202T342 529Q342 723 460 856T751 990Q924 990 1043 856Q1070 826 1091
792V792V1005H1198V535Q1198 362 1236 261T1339 160ZM771 908Q637 908 545 798T452 529Q452 370 544 261T771 151Q915 151 1003 255T1091 530Q1091 696 1002 802T771 908Z" />
<glyph unicode="A" glyph-name="null" horiz-adv-x="1366" d="M8 0L653 1411H683H713L1358 0V0H1299H1239V0L1019 484V484H337V484L120 0V0H64H8V0ZM678 1236L379 574V574H979V574L678 1236V1236V1236Z" />
<glyph unicode="B" glyph-name="null" horiz-adv-x="1087" d="M164 0V1397V1397H218V1397H486Q693 1397 810 1304T927 1045Q927 880 810 787Q763 750 701 728V728Q824 706 907 644Q1042 546 1042 371Q1042 197 916 99T564 0H218V0H164V0ZM272 1300V748V748H486Q639
748 723 820T808 1023Q808 1155 724 1227T486 1300H272V1300ZM272 661V97V97H564Q735 97 829 171T923 378Q923 512 821 586T532 661H272V661Z" />
<glyph unicode="C" glyph-name="null" horiz-adv-x="1386" d="M1339 112Q1201 42 1082 13T818 -17Q524 -17 312 194T100 698Q100 999 308 1206T818 1414Q963 1414 1082 1385T1339 1285V1175Q1204 1251 1086 1284T828 1317Q576 1317 398 1136T219 698Q219 442 397
261T828 80Q968 80 1086 113T1339 222V112Z" />
<glyph unicode="D" glyph-name="null" horiz-adv-x="1516" d="M162 0V1397V1397H216V1397H679Q1010 1397 1211 1205T1413 698Q1413 384 1206 192T659 0H216V0H162V0ZM270 97V97H659Q948 97 1121 261T1294 698Q1294 972 1127 1136T679 1300H270V1300V97Z" />
<glyph unicode="E" glyph-name="null" horiz-adv-x="1004" d="M164 0V0V1397V1397H918V1397V1352V1307V1307H272V1307V747V747H903V702V657V657H272V657V90V90H942V90V45V0V0H164Z" />
<glyph unicode="F" glyph-name="null" horiz-adv-x="897" d="M160 0V1397V1397H879V1397V1352V1307V1307H268V1307V747V747H807V702V657V657H268V657V0H214H160Z" />
<glyph unicode="G" glyph-name="null" horiz-adv-x="1473" d="M854 -17Q539 -17 321 190T102 698Q102 999 312 1206T825 1414Q967 1414 1087 1385T1358 1285V1175Q1224 1251 1104 1284T839 1317Q577 1317 399 1139T221 698Q221 435 399 258T839 80Q1070 81 1250
176V176V609V609H957V699H1358V115V115Q1139 -17 854 -17Z" />
<glyph unicode="H" glyph-name="null" horiz-adv-x="1473" d="M162 0V1397V1397H216H270V1397V747V747H1203V747V1397V1397H1257H1311V1397V0V0H1257H1203V0V657V657H270V657V0V0H216H162V0Z" />
<glyph unicode="I" glyph-name="null" horiz-adv-x="426" d="M160 0V1397V1397H214H268V1397V0V0H214H160V0Z" />
<glyph unicode="J" glyph-name="null" horiz-adv-x="426" d="M168 1397V1397H222H276V1397V-25Q276 -209 198 -308T-25 -408L-75 -406L-92 -307Q-70 -312 -43 -311Q66 -311 117 -242T168 -25V-25V1397Z" />
<glyph unicode="K" glyph-name="null" horiz-adv-x="1087" d="M264 0V0H210H156V0V1397V1397H210H264V1397V696V696L950 1397V1397H1017H1084V1397L397 704V704L1133 0V0H1059H985V0L264 702V702V0Z" />
<glyph unicode="L" glyph-name="null" horiz-adv-x="961" d="M162 0V0V1397V1397H216H270V1397V90V90H961V90V45V0V0H162Z" />
<glyph unicode="M" glyph-name="null" horiz-adv-x="1599" d="M266 0V0H212H158V0V1397V1397H210H263V1397L806 732V732V732L1335 1397V1397H1387H1440V1397V0V0H1386H1332V0V1250V1250L803 586H799H795L266 1233V1233V0Z" />
<glyph unicode="N" glyph-name="null" horiz-adv-x="1579" d="M268 0V0H214H160V0V1397V1397H206H252V1397L1311 194V194V194V1397V1397H1365H1419V1397V-14H1386H1352L268 1216V1216V1216V0Z" />
<glyph unicode="O" glyph-name="null" horiz-adv-x="1686" d="M843 -17Q540 -17 322 194T104 698Q104 992 322 1203T843 1414Q1147 1414 1365 1203T1583 698Q1583 405 1365 194T843 -17V-17ZM843 80Q1101 80 1282 261T1464 698Q1464 955 1283 1136T843 1317Q586
1317 405 1136T223 698Q223 442 404 261T843 80V80Z" />
<glyph unicode="P" glyph-name="null" horiz-adv-x="1044" d="M160 0V1397V1397H214V1397H513Q742 1397 871 1296T1001 1016Q1001 838 872 738T513 637H268V637V0V0H214H160V0ZM268 734V734H544Q705 734 793 808T882 1016Q882 1151 794 1225T544 1300H268V1300V734Z" />
<glyph unicode="Q" glyph-name="null" horiz-adv-x="1686" d="M843 1414Q1147 1414 1365 1203T1583 698Q1583 405 1365 194Q1186 20 948 -10V-10Q1056 -107 1193 -157Q1395 -230 1538 -154L1424 -268Q1237 -294 1022 -186Q880 -116 783 -14V-14Q517 5 322 194Q104
405 104 698Q104 992 322 1203T843 1414V1414ZM843 1317Q586 1317 405 1136T223 698Q223 442 404 261T843 80Q1101 80 1282 261T1464 698Q1464 955 1283 1136T843 1317V1317Z" />
<glyph unicode="R" glyph-name="null" horiz-adv-x="1174" d="M162 0V1397V1397H216V1397H507Q731 1397 857 1301T984 1034Q984 864 857 768Q799 724 718 700V700Q749 679 792 633Q874 545 955 418L1220 0V0H1158H1096V0L831 418Q733 573 669 620T491 668H270V668V0V0H216H162V0ZM270
755V755H508Q678 755 771 826T865 1027Q865 1157 772 1228T508 1300H270V1300V755Z" />
<glyph unicode="S" glyph-name="null" horiz-adv-x="961" d="M823 1210Q725 1266 652 1291T517 1317Q387 1317 298 1237T208 1040Q208 949 276 886Q343 824 505 766Q715 690 796 600Q877 511 877 354Q877 198 763 91T482 -17Q382 -17 296 12T117 105V228Q217 153
302 117T466 80Q591 80 677 164T763 372Q763 467 692 536Q622 604 467 660Q249 738 171 821Q94 903 94 1057Q94 1207 216 1310T517 1414Q593 1414 664 1394T823 1327V1210Z" />
<glyph unicode="T" glyph-name="null" horiz-adv-x="1174" d="M532 0V1307V1307H8V1307V1352V1397V1397H1165V1397V1352V1307V1307H640V1307V0V0H586H532V0Z" />
<glyph unicode="U" glyph-name="null" horiz-adv-x="1430" d="M1300 627Q1300 328 1144 156T716 -17Q444 -17 288 155T131 627V1397V1397H185H239V1397V621Q239 370 367 226T716 82Q938 82 1065 226T1192 621V1397V1397H1246H1300V1397V627Z" />
<glyph unicode="V" glyph-name="null" horiz-adv-x="1217" d="M6 1397V1397H61H116V1397L608 210V210V210L1100 1397V1397H1155H1210V1397L620 -14H608H596L6 1397Z" />
<glyph unicode="W" glyph-name="null" horiz-adv-x="2111" d="M542 -14L-2 1397V1397H56H114V1397L560 229V229V229L1026 1411H1059H1093L1561 229V229V229L2005 1397V1397H2059H2114V1397L1570 -14H1558H1546L1055 1213V1213V1213L566 -14H554H542Z" />
<glyph unicode="X" glyph-name="null" horiz-adv-x="1409" d="M0 0L639 702V702L10 1397V1397H78H147V1397L707 777V777V777L1271 1397V1397H1335H1399V1397L770 706V706L1409 0V0H1341H1272V0L701 632V632V632L128 0V0H64H0V0Z" />
<glyph unicode="Y" glyph-name="null" horiz-adv-x="1194" d="M543 751V751L0 1397V1397H68H137V1397L599 836V836L1066 1397V1397H1130H1194V1397L651 758V758V0H597H543V751Z" />
<glyph unicode="Z" glyph-name="null" horiz-adv-x="1300" d="M18 48L1101 1307V1307H75V1307V1352V1397V1397H1250L1257 1373L1264 1349L182 90V90H1257V90V45V0V0H32L25 24L18 48Z" />
<glyph unicode="[" glyph-name="null" horiz-adv-x="618" d="M141 -475V1414V1414H604V1325H238V1325V-386V-386H604V-475H141V-475Z" />
<glyph unicode="\" glyph-name="null" horiz-adv-x="575" d="M474 -21L25 1425H120L569 -21H474Z" />
<glyph unicode="]" glyph-name="null" horiz-adv-x="618" d="M477 -475V-475H14V-386H380V-386V1325V1325H14V1414H477V1414V-475Z" />
<glyph unicode="^" glyph-name="null" horiz-adv-x="1352" d="M698 1414L1124 690H1021L674 1279V1279L330 690H227L652 1414H675H698Z" />
<glyph unicode="_" glyph-name="null" horiz-adv-x="1024" d="M-12 -475V-370H1036V-475H-12Z" />
<glyph unicode="`" glyph-name="null" horiz-adv-x="682" d="M311 1049L-8 1376H153L375 1049H311Z" />
<glyph unicode="a" glyph-name="null" horiz-adv-x="874" d="M316 -21Q214 -21 144 45T74 209Q74 365 227 460Q374 552 608 555V555V671Q608 763 558 806T401 849Q325 849 258 821T124 735V840Q197 893 269 917T427 941Q556 941 631 878T706 706V120Q706 97 713
87T737 76Q749 76 785 99T861 154L862 78Q817 39 761 11T672 -18Q641 -18 625 10T608 92V94Q565 58 507 28Q409 -21 316 -21ZM608 185V477V477Q431 473 302 400Q168 323 168 214Q168 151 221 109T352 66Q429 66 499 98T608 185V185Z" />
<glyph unicode="b" glyph-name="null" horiz-adv-x="1044" d="M127 1397V1397H176H225V1397V798V798Q252 824 280 845Q410 941 559 941Q743 941 855 809T967 459Q967 253 821 116T455 -21Q375 -21 285 0T127 56V1397ZM446 76Q625 76 743 186T862 464Q862 634 776
744T557 854Q425 854 321 779Q265 739 225 684V684V120V120L267 103Q346 76 446 76Z" />
<glyph unicode="c" glyph-name="null" horiz-adv-x="854" d="M793 28Q721 1 666 -10T545 -21Q343 -21 215 113T86 459Q86 671 214 806T545 941Q602 941 652 930T772 892V792Q698 820 645 831T531 842Q388 842 288 730T187 459Q187 282 285 180T554 78Q616 78 669
89T793 128V28Z" />
<glyph unicode="d" glyph-name="null" horiz-adv-x="1044" d="M567 -21Q350 -21 217 111T84 459Q84 666 221 803T567 941Q700 941 804 872L822 860V860V1397V1397H871H920V1397V0V0H871H822V0V65V65L801 51Q694 -21 567 -21ZM564 844Q395 844 292 738T189 459Q189
300 298 188T563 76Q676 76 760 124Q797 145 822 173V173V743V743Q797 769 757 792Q668 844 564 844Z" />
<glyph unicode="e" glyph-name="null" horiz-adv-x="981" d="M562 -21Q351 -21 217 113T82 459Q82 671 198 806T496 941Q695 941 803 815Q905 699 910 485V485H183V485V464Q183 306 295 195T566 83Q662 83 745 114T911 212V110Q829 42 745 11T562 -21ZM801 563V563Q785
672 726 743Q642 846 496 846Q366 846 274 734Q214 660 192 563V563H801Z" />
<glyph unicode="f" glyph-name="null" horiz-adv-x="492" d="M292 839V839V0V0H243H194V0V839V839H23V920H194V920V1061Q194 1224 279 1319T512 1414Q612 1414 680 1370V1274Q616 1315 521 1315Q403 1315 348 1254T292 1061V920V920H482V839H292Z" />
<glyph unicode="g" glyph-name="null" horiz-adv-x="874" d="M249 138Q249 90 313 66T505 39Q690 36 772 -21T854 -206Q854 -331 741 -401T425 -471Q243 -471 140 -405T37 -221Q37 -141 108 -82T281 -16V-16L235 9Q155 61 155 130Q155 185 210 229T344 282V282Q253
300 188 364Q98 454 98 596Q98 739 192 829T435 920Q470 921 502 914V914H854V838H656V838Q667 833 674 824Q773 729 773 596Q773 454 674 364Q602 298 500 280V280Q374 256 311 220Q249 185 249 138ZM435 844Q333 844 261 772T188 596Q188 494 260 422T435 350Q538
350 610 422T683 596Q683 699 610 772Q538 844 435 844ZM128 -215Q128 -295 208 -340T429 -385Q586 -385 674 -339T762 -210Q762 -135 694 -92T505 -47L444 -46Q430 -46 407 -48T365 -53Q250 -73 194 -107Q128 -147 128 -215Z" />
<glyph unicode="h" glyph-name="null" horiz-adv-x="1004" d="M127 0V1397V1397H176H225V1397V764V764V764L249 795Q363 941 532 941Q686 941 780 838T874 565V0V0H825H776V0V559Q776 687 705 765T517 844Q387 844 281 724Q251 690 225 648V648V0V0H176H127V0Z" />
<glyph unicode="i" glyph-name="null" horiz-adv-x="385" d="M143 0V920V920H192H241V920V0V0H192H143V0ZM143 1397H241V1229H143V1397Z" />
<glyph unicode="j" glyph-name="null" horiz-adv-x="385" d="M140 920V920H189H238V920V-129Q238 -307 159 -393Q93 -466 -38 -476V-476L-57 -390V-390Q37 -382 85 -327Q140 -264 140 -129V-129V920ZM140 1397H238V1229H140V1397Z" />
<glyph unicode="k" glyph-name="null" horiz-adv-x="874" d="M219 1397V0V0H170H121V0V1397V1397H170H219V1397ZM800 0L244 460V460L751 920V920H816H882V920L385 464V464L948 0V0H874H800V0Z" />
<glyph unicode="l" glyph-name="null" horiz-adv-x="385" d="M143 0V1397V1397H192H241V1397V0V0H192H143V0Z" />
<glyph unicode="m" glyph-name="null" horiz-adv-x="1579" d="M123 0V920V920H172H221V920V770V770V770L240 795Q350 941 511 941Q658 941 748 842Q792 793 815 730V730L857 795Q966 941 1127 941Q1274 941 1364 842T1454 581V0V0H1405H1356V0V573Q1356 695 1289
769T1110 844Q989 844 889 724Q862 693 838 652V652V0V0H789H740V0V573Q740 695 673 769T494 844Q373 844 272 724Q245 693 221 652V652V0V0H172H123V0Z" />
<glyph unicode="n" glyph-name="null" horiz-adv-x="1004" d="M127 0V920V920H176H225V920V764V764V764L249 795Q363 941 532 941Q686 941 780 838T874 565V0V0H825H776V0V559Q776 687 705 765T517 844Q387 844 281 724Q251 690 225 648V648V0V0H176H127V0Z" />
<glyph unicode="o" glyph-name="null" horiz-adv-x="1110" d="M554 -21Q348 -21 217 113T86 459Q86 671 217 806T554 941Q760 941 891 806T1022 459Q1022 248 891 114T554 -21V-21ZM554 74Q706 74 813 186T921 459Q921 620 814 733T554 846Q402 846 295 733T187
459Q187 299 294 187T554 74V74Z" />
<glyph unicode="p" glyph-name="null" horiz-adv-x="1044" d="M129 920V920H178H227V920V870V870L246 880Q357 941 495 941Q703 941 830 809T958 459Q958 253 826 116T495 -21Q351 -21 244 38L227 47V47V-475V-475H178H129V-475V920ZM481 76Q648 76 750 181T853
459Q853 619 744 731T481 844Q365 844 282 806Q251 792 227 774V774V149V149L286 116Q374 76 481 76Z" />
<glyph unicode="q" glyph-name="null" horiz-adv-x="1044" d="M517 -21Q319 -21 198 111T76 459Q76 657 206 799T517 941Q673 941 789 878L817 861V861V920V920H915V920V-475V-475H866H817V-475V63V63L786 44Q666 -21 517 -21ZM557 844Q388 844 285 728T181 421Q181
278 281 177T523 76Q655 76 749 118Q790 137 817 160V160V759V759Q791 780 754 799Q664 844 557 844Z" />
<glyph unicode="r" glyph-name="null" horiz-adv-x="682" d="M109 0V920V920H158H207V920V668V668V668Q265 773 340 846Q440 941 540 941Q584 941 632 914T744 828L694 741Q627 798 583 822T499 846Q436 846 364 779T207 574V574V0V0H158H109V0Z" />
<glyph unicode="s" glyph-name="null" horiz-adv-x="725" d="M634 764Q569 807 511 826T389 846Q304 846 245 804T185 701Q185 638 226 600Q267 562 390 514Q550 451 606 392Q662 333 662 229Q662 126 573 53T361 -21Q305 -21 241 -2T84 60V156Q173 112 238 93T361
74Q446 74 506 123T566 243Q566 303 524 340Q482 376 356 426Q199 488 144 545Q89 602 89 701Q89 799 177 870T389 941Q451 941 509 922T634 860V764Z" />
<glyph unicode="t" glyph-name="null" horiz-adv-x="618" d="M612 32Q542 -21 435 -21Q330 -21 269 37T208 197V839V839H-39V920H208V920V1142L276 1224H277H306V1190V920V920H553V839H306V839V225Q306 148 340 112T447 76Q549 76 612 127V32Z" />
<glyph unicode="u" glyph-name="null" horiz-adv-x="1004" d="M225 920V361Q225 233 296 155T484 76Q614 76 720 196Q750 230 776 272V272V920V920H825H874V920V0V0H825H776V0V159V159V159L752 125Q638 -21 469 -21Q315 -21 221 82T127 355V920V920H176H225V920Z" />
<glyph unicode="v" glyph-name="null" horiz-adv-x="874" d="M0 920V920H51H102V920L441 132V132V132L779 920V920H826H874V920L467 -14H437H407L0 920Z" />
<glyph unicode="w" glyph-name="null" horiz-adv-x="1450" d="M375 -14L0 920V920H51H102V920L408 146V146V146L698 934H728H758L1050 148V148V148L1356 920V920H1403H1450V920L1075 -14H1045H1015L725 757V757V757L435 -14H405H375Z" />
<glyph unicode="x" glyph-name="null" horiz-adv-x="981" d="M12 0L437 462V462L21 920V920H85H150V920L502 533V533V533L858 920V920H918H978V920L562 467V467L987 0V0H923H858V0L497 397V397V397L132 0V0H72H12V0Z" />
<glyph unicode="y" glyph-name="null" horiz-adv-x="854" d="M173 -496V-496H120H67V-496L398 179V179L12 920V920H65H118V920L453 268V268V268L769 920V920H817H866V920L173 -496Z" />
<glyph unicode="z" glyph-name="null" horiz-adv-x="811" d="M20 30L640 831V831H76V831V875V920V920H789L796 905L803 890L185 89V89H777V89V45V0V0H34L27 15L20 30Z" />
<glyph unicode="{" glyph-name="null" horiz-adv-x="682" d="M586 -474Q424 -474 366 -400T307 -122V118Q307 260 258 330T100 408V532Q208 540 257 610T307 822V1062Q307 1266 365 1340T586 1414V1325Q494 1325 452 1262T409 1062V822Q409 625 344 549Q296 492
186 471V471Q296 446 344 391Q409 315 409 118V-122Q409 -259 451 -322T586 -385V-474Z" />
<glyph unicode="|" glyph-name="null" horiz-adv-x="455" d="M176 -525V1541H274V-525H176Z" />
<glyph unicode="}" glyph-name="null" horiz-adv-x="682" d="M96 -474V-385Q188 -385 230 -322T273 -122V118Q273 315 338 391Q386 446 496 471V471Q386 492 338 549Q273 625 273 822V1062Q273 1199 231 1262T96 1325V1414Q258 1414 316 1340T375 1062V822Q375
680 424 610T582 532V408Q474 400 425 330T375 118V-122Q375 -326 316 -400Q258 -474 96 -474Z" />
<glyph unicode="~" glyph-name="null" horiz-adv-x="1352" d="M137 690Q188 753 266 787T437 822Q491 822 547 805T696 742Q779 702 832 686T938 670Q1009 670 1084 705T1211 797V703Q1168 640 1090 606T911 571Q858 571 802 588T652 652Q570 692 517 707T410
723Q348 723 273 688T137 596V690Z" />
</font>
</defs>
</svg>
